<svg width="59" height="66" viewBox="0 0 59 66" fill="none" xmlns="http://www.w3.org/2000/svg">
<g clip-path="url(#clip0_254_2)">
<path d="M55.944 49.2218C52.8253 46.2397 48.3896 40.0488 48.3896 28.9621V24.54C48.3896 15.1325 41.4844 7.33325 32.4523 5.90728V2.97429C32.4523 1.33169 31.1168 0 29.4694 0C27.822 0 26.4865 1.33169 26.4865 2.97429V5.90883C17.4397 7.34649 10.5492 15.2205 10.5492 24.6421V28.9621C10.5492 40.0488 6.11349 46.2397 2.99478 49.2218C1.08927 51.0436 0 53.5535 0 56.1857V56.2294H58.9388V56.1857C58.9388 53.5535 57.8495 51.0436 55.944 49.2218Z" fill="white"/>
<path d="M29.4694 65.9571C33.7554 65.9571 37.2297 62.4927 37.2297 58.2195H21.7091C21.7091 62.4927 25.1835 65.9571 29.4694 65.9571Z" fill="white"/>
</g>
<defs>
<clipPath id="clip0_254_2">
<rect width="59" height="66" fill="white"/>
</clipPath>
</defs>
</svg>
