<svg width="71" height="88" viewBox="0 0 71 88" fill="none" xmlns="http://www.w3.org/2000/svg">
<g clip-path="url(#clip0_258_58)">
<path d="M7.78836 87.9651H63.1644C66.802 87.9651 69.8449 85.4563 70.7016 82.071H0.251244C1.10977 85.4563 4.15713 87.9651 7.78836 87.9651Z" fill="white"/>
<path d="M0 80.1368C0 80.805 0.0942725 81.4506 0.251243 82.0711H70.7016C70.8586 81.4506 70.9527 80.805 70.9527 80.1368V78.8923H0V80.1368Z" fill="white"/>
<path d="M49.7406 35.189H21.1107V24.1067C21.1107 20.0384 23.1506 16.2157 26.5694 14.034C37.3109 7.18075 48.5807 14.0665 49.7406 24.0203V35.189ZM38.7399 62.0811V68.251H32.2155V62.0811C29.4158 60.3478 28.0539 56.5008 30.5066 52.7128C30.747 52.3429 31.0672 52.0185 31.4342 51.7765C36.4362 48.4657 41.7235 51.9878 41.7235 56.7513C41.7235 59.0133 40.5232 60.9763 38.7399 62.0811ZM61.0636 25.7051C61.0636 7.20428 41.5021 -6.79874 22.0743 3.48073C14.5119 7.48168 9.89197 15.4882 9.89197 24.0748V35.189H4.86654C2.17817 35.189 0 37.3765 0 40.0773V78.8923H70.9527V40.0764C70.9527 37.3765 68.7747 35.189 66.0862 35.189H60.9011V25.7051H61.0636Z" fill="white"/>
</g>
<defs>
<clipPath id="clip0_258_58">
<rect width="71" height="88" fill="white"/>
</clipPath>
</defs>
</svg>
