<svg width="69" height="69" viewBox="0 0 69 69" fill="none" xmlns="http://www.w3.org/2000/svg">
<g clip-path="url(#clip0_256_11)">
<path d="M66.6304 59.6392L66.3408 59.3503L59.3277 66.3214L59.4984 66.4896L61.3582 68.3355C62.5497 69.5225 65.0856 68.9229 67.0237 66.9991C68.9602 65.0717 69.5627 62.5511 68.3712 61.3669L66.6333 59.6392H66.6304Z" fill="white"/>
<path d="M64.6247 57.6737L57.6115 64.6403L59.3277 66.3214L66.3408 59.3503L66.1403 59.1511L66.1347 59.1541L64.6247 57.6737Z" fill="white"/>
<path d="M27.6983 46.269C17.0879 46.269 8.48363 37.718 8.48363 27.1677C8.48363 16.6169 17.0879 8.0664 27.6983 8.0664C38.3115 8.0664 46.9138 16.6169 46.9138 27.1677C46.9138 37.718 38.3115 46.269 27.6983 46.269ZM27.3247 0C12.2332 0 0 12.1642 0 27.1677C0 42.1706 12.2332 54.3325 27.3247 54.3325C32.9199 54.3325 38.1135 52.6584 42.4472 49.7906L57.6115 64.6403L64.6247 57.6737L49.5592 42.9228C52.7539 38.4771 54.6532 33.0469 54.6532 27.1677C54.6532 12.1642 42.4199 0 27.3247 0Z" fill="white"/>
</g>
<defs>
<clipPath id="clip0_256_11">
<rect width="69" height="69" fill="white"/>
</clipPath>
</defs>
</svg>
