<svg width="84" height="84" viewBox="0 0 84 84" fill="none" xmlns="http://www.w3.org/2000/svg">
<g clip-path="url(#clip0_256_17)">
<path d="M41.9921 67.8362C27.7188 67.8362 16.1479 56.2654 16.1479 41.992C16.1479 27.7188 27.7188 16.1479 41.9921 16.1479C56.2656 16.1479 67.8364 27.7188 67.8364 41.992C67.8364 56.2654 56.2656 67.8362 41.9921 67.8362ZM81.6445 34.6802L76.1217 33.3578C75.2779 30.0111 73.9545 26.8552 72.2288 23.9671L75.2007 19.1243C75.939 17.9216 75.7558 16.3697 74.7575 15.372L68.6122 9.22646C67.6146 8.22869 66.0629 8.04552 64.8602 8.78352L60.017 11.7552C57.129 10.0299 53.9729 8.70659 50.6264 7.86257L49.3042 2.34004C48.9758 0.967822 47.7487 0 46.3378 0H37.6464C36.2355 0 35.0087 0.967822 34.6801 2.34004L33.3578 7.86257C30.0111 8.70659 26.8552 10.0299 23.9671 11.7552L19.1242 8.78352C17.9216 8.04552 16.3697 8.22869 15.3719 9.22646L9.22646 15.372C8.22868 16.3697 8.04551 17.9216 8.78346 19.1243L11.7552 23.9671C10.0298 26.8552 8.70659 30.0111 7.86256 33.3578L2.34004 34.6802C0.967767 35.0087 0 36.2355 0 37.6466V46.3377C0 47.7485 0.967767 48.9757 2.34004 49.304L7.86256 50.6263C8.70659 53.9732 10.0298 57.1294 11.7552 60.0174L8.78346 64.8601C8.04551 66.0627 8.22868 67.6144 9.22646 68.6121L15.3719 74.7579C16.3697 75.7556 17.9216 75.9388 19.1242 75.2011L23.9671 72.2292C26.8552 73.9544 30.0111 75.2777 33.3578 76.1215L34.6801 81.6443C35.0087 83.0166 36.2355 83.9844 37.6464 83.9844H46.3378C47.7487 83.9844 48.9758 83.0166 49.3042 81.6443L50.6264 76.1215C53.9729 75.2777 57.129 73.9544 60.017 72.2292L64.8602 75.2011C66.0629 75.9388 67.6146 75.7556 68.6122 74.7579L74.7575 68.6121C75.7558 67.6144 75.939 66.0627 75.2007 64.8601L72.2288 60.0174C73.9545 57.1294 75.2779 53.9732 76.1217 50.6263L81.6445 49.304C83.0162 48.9757 83.9845 47.7485 83.9845 46.3377V37.6466C83.9845 36.2355 83.0162 35.0087 81.6445 34.6802Z" fill="white"/>
</g>
<defs>
<clipPath id="clip0_256_17">
<rect width="84" height="84" fill="white"/>
</clipPath>
</defs>
</svg>
